<svg xmlns="http://www.w3.org/2000/svg" viewBox="0 0 105 65"><defs><style>.cls-1{fill:none;stroke:#231f20;stroke-miterlimit:10;}</style></defs><title>nodes</title><g id="defaultdown"><path class="cls-1" d="M52,0H72a32.09,32.09,0,0,1,32,32h0A32.09,32.09,0,0,1,72,64H32A32.09,32.09,0,0,1,0,32H0A32.09,32.09,0,0,1,32,0H52" transform="translate(0.5 0.5)"/></g><g id="defaultup"><path class="cls-1" d="M52,64H32A32.09,32.09,0,0,1,0,32H0A32.09,32.09,0,0,1,32,0H72a32.09,32.09,0,0,1,32,32h0A32.09,32.09,0,0,1,72,64H52" transform="translate(0.5 0.5)"/></g><g id="lump"><path class="cls-1" d="M52,63.69H31.56A31.15,31.15,0,0,1,.5,32.64V31.36C.5,14.28,34.92.31,52,.31s51.5,14,51.5,31.05v1.28A31.15,31.15,0,0,1,72.44,63.69H52" transform="translate(0.5 0.5)"/></g><g id="fat"><path class="cls-1" d="M52,0c52,0,52,0,52,32.94C104,64,104,64,52,64S0,64,0,32.94C0,0,0,0,52,0" transform="translate(0.5 0.5)"/></g></svg>