<svg xmlns="http://www.w3.org/2000/svg" viewBox="0 0 104.9 64.94"><defs><style>.cls-1{fill:none;stroke:#000;stroke-miterlimit:10;stroke-width:1px;}</style></defs><title>nodes</title><g id="defaultdown"><path class="cls-1" d="M52,0H72a32.07,32.07,0,0,1,32,32h0A32.07,32.07,0,0,1,72,64H32a32.07,32.07,0,0,1-32-32h0A32.07,32.07,0,0,1,32,0H52" transform="translate(0.45 0.47)"/></g><g id="defaultup"><path class="cls-1" d="M52,64H32a32.07,32.07,0,0,1-32-32h0A32.07,32.07,0,0,1,32,0H72a32.07,32.07,0,0,1,32,32h0A32.07,32.07,0,0,1,72,64H52" transform="translate(0.45 0.47)"/></g><g id="lump"><path class="cls-1" d="M52,63.66H31.58a31.11,31.11,0,0,1-31-31V31.36C.55,14.3,34.94.34,52,.34s51.45,14,51.45,31v1.28a31.11,31.11,0,0,1-31,31H52" transform="translate(0.45 0.47)"/></g><g id="fat"><path class="cls-1" d="M52,0c52,0,52,0,52,32.91,0,31,0,31-51.95,31S.05,64,.05,32.94C.05,0,.05,0,52,0" transform="translate(0.45 0.47)"/></g><g id="wiggly"><path d="M51.51,1c2.54,0,6,1.29,9.41,2.54C64.55,4.9,68.31,6.3,71.37,6.3a7.47,7.47,0,0,0,2.69-.45,14,14,0,0,1,5-1c3.44,0,5.68,1.71,7.85,3.36,1.58,1.21,3.08,2.35,4.87,2.61l.42.06.34-.27c3-2.41,4.64-2.91,5.46-2.91a1.16,1.16,0,0,1,.94.39c1.27,1.45.65,6.25.31,8.82-.29,2.26-.42,3.21.1,3.72,2,3.22,4,7.84,3.62,11.34a5.1,5.1,0,0,1-1.89,3.42A6,6,0,0,0,99,41.42a16.92,16.92,0,0,0,1,3.17,12.77,12.77,0,0,1,1.17,4.86c0,2.51-2.53,6.59-4.35,8.41a6.37,6.37,0,0,1-4.52,2.28c-1.8,0-3.63-1-5.58-2.07-2.28-1.25-4.86-2.66-7.89-2.66h-.55c-4.08.23-5.09,2.31-5.83,3.82-.58,1.17-.83,1.58-1.91,1.58a9.94,9.94,0,0,1-2.89-.61,14.48,14.48,0,0,0-4.49-.89,7.33,7.33,0,0,0-4.46,1.6A10.64,10.64,0,0,1,51.89,63c-1.58,0-3.46-1.81-5.28-3.55-2.06-2-4.2-4-6.52-4l-.44,0c-.38,0-.9-.06-1.53-.06-4.22,0-7.46,1.69-9.39,4.9a1.82,1.82,0,0,1-1.79.86c-2.31,0-5.74-1.89-7.79-3-1.53-.84-2-1.11-2.58-1.11h0a22.59,22.59,0,0,0-5,1.4c-2.47.86-5.27,1.83-6.86,1.83a1.29,1.29,0,0,1-.66-.11h0c-1.08-1.22.34-4.75,1.48-7.58,1.07-2.65,2-5,1.57-6.5a10.73,10.73,0,0,0-3.38-5.64C2.26,38.94,1,37.72,1,32c0-1.73,1.22-2.7,2.51-3.72C5.05,27.05,7,25.52,5.6,22.72c-1.93-4-.82-5,.25-6a3.46,3.46,0,0,0,1.21-1.69l.07-.26-.07-.25A19,19,0,0,0,4.93,10V9.72C5,6.86,5,5.79,8.28,3.94a5,5,0,0,1,2.22-.78c.77,0,1.2.54,2,1.56C13.5,6.11,14.91,8,18.24,8h.2a7.18,7.18,0,0,0,5.14-2.49,7.44,7.44,0,0,1,2.91-1.95,11,11,0,0,1,3.09-.63A5.21,5.21,0,0,1,32.4,4c.71.42,1.6.94,2.8,1.51A10.71,10.71,0,0,0,39.63,6.7c2.35,0,3.79-1.31,5.18-2.57a9.83,9.83,0,0,1,5.93-3.08,6.29,6.29,0,0,1,.77,0m0-1a6.46,6.46,0,0,0-.89,0c-6.13.74-6.8,5.64-11,5.64a9.59,9.59,0,0,1-4-1.09c-3.18-1.49-4-2.68-6-2.68a12.06,12.06,0,0,0-3.39.67c-3.32,1-3.94,4.32-7.77,4.4h-.19c-5,0-4.74-4.84-7.73-4.84a5.8,5.8,0,0,0-2.71.9C3.71,5.34,4,7,3.93,10.33a17.48,17.48,0,0,1,2.16,4.48c-.41,1.64-4.48,2-1.38,8.35C6.64,27.14,0,27.38,0,32c0,10.48,4.21,7.14,6.13,14.25C6.92,49.18.72,57.83,3.31,60.74a1.81,1.81,0,0,0,1.4.44C7.83,61.18,14.48,58,16.6,58h0c.82,0,6.57,4.13,10.33,4.13a2.86,2.86,0,0,0,2.65-1.34,9.37,9.37,0,0,1,8.53-4.42c.94,0,1.65.08,2,.08h0C43.93,56.4,48,64,51.89,64H52c7.09-.14,7.1-3.67,11.15-3.67a13.43,13.43,0,0,1,4.17.84,10.77,10.77,0,0,0,3.21.66c4,0,1.49-5,7.79-5.4h.5c5.28,0,9.15,4.73,13.47,4.73,1.65,0,3.36-.69,5.23-2.57s4.64-6.22,4.64-9.12c0-3.41-1.75-5.66-2.17-8.19-.88-5.3,3.57-4.65,4-9.23.39-4-2-9.12-3.86-12.11-.8-.45,3-13.26-2.11-13.26-1.33,0-3.28.89-6.08,3.13-3.76-.55-6.48-6-12.86-6a15,15,0,0,0-5.35,1.1,6.44,6.44,0,0,1-2.33.39C65.67,5.3,57,0,51.51,0Z" transform="translate(0.45 0.47)"/></g></svg>